<?xml version="1.0" standalone="no"?>
<!DOCTYPE svg PUBLIC "-//W3C//DTD SVG 20010904//EN"
 "http://www.w3.org/TR/2001/REC-SVG-20010904/DTD/svg10.dtd">
<svg version="1.0" xmlns="http://www.w3.org/2000/svg"
 width="200.000000pt" height="199.000000pt" viewBox="0 0 200.000000 199.000000"
 preserveAspectRatio="xMidYMid meet">

<g transform="translate(0.000000,199.000000) scale(0.100000,-0.100000)"
fill="#000000" stroke="none">
<path d="M135 1945 c-47 -17 -81 -55 -95 -107 -7 -24 -9 -331 -8 -870 3 -932
-2 -872 75 -920 l38 -23 855 0 855 0 38 23 c77 48 72 -15 72 942 l0 855 -23
38 c-48 77 13 72 -927 74 -707 2 -846 0 -880 -12z m539 -157 c144 -47 235
-119 312 -245 82 -136 117 -255 189 -648 65 -360 103 -471 190 -564 66 -70
120 -95 214 -95 42 0 97 3 123 8 55 10 84 -4 68 -33 -20 -38 -211 -55 -306
-26 -75 22 -153 81 -200 152 -73 109 -118 251 -164 528 -13 72 -26 134 -30
138 -4 5 -179 -176 -388 -401 -210 -226 -386 -413 -392 -417 -21 -13 -62 4
-58 24 2 15 352 399 772 849 l50 53 -18 77 c-88 381 -257 562 -527 562 -56 0
-82 4 -93 15 -18 18 -12 42 12 49 33 10 186 -6 246 -26z"/>
</g>
</svg>
